<?xml version="1.0" encoding="utf-8"?>
<!-- Generator: Adobe Illustrator 21.0.2, SVG Export Plug-In . SVG Version: 6.00 Build 0)  -->
<svg version="1.0" id="Layer_1" xmlns="http://www.w3.org/2000/svg" xmlns:xlink="http://www.w3.org/1999/xlink" x="0px" y="0px"
	 viewBox="0 0 498.9 166.1" style="enable-background:new 0 0 498.9 166.1;" xml:space="preserve">
<style type="text/css">
	.st0{fill:#FFFFFF;}
	.st1{fill:#657E36;}
</style>
<g>
	<g>
		<path class="st0" d="M60.4,18.6l0.1-0.4c0.3-0.7,0.8-1.3,1.5-1.6l0.5-0.2c0.3-0.1,0.6-0.2,1-0.2H86c0.2,0,0.5,0,0.7,0.1l0.6,0.2
			c0.9,0.2,1.6,0.9,1.9,1.8l0.1,0.3c0.1,0.2,0.1,0.5,0.1,0.8v88.2c0,0.4-0.1,0.7-0.2,1.1l0,0c-0.3,0.8-1,1.3-1.8,1.5l-0.2,0
			c-0.2,0.1-0.4,0.1-0.7,0.1H62.9c-0.3,0-0.5,0-0.7-0.1l-0.5-0.2c-0.5-0.2-1-0.5-1.4-0.9l-0.6-0.8L29.7,65.2V107
			c0,0.3-0.1,0.6-0.2,0.9l-0.1,0.4c-0.3,0.8-0.9,1.4-1.7,1.6l-0.6,0.2c-0.3,0.1-0.5,0.1-0.8,0.1H4c-0.3,0-0.7-0.1-1-0.2l-0.6-0.2
			c-0.7-0.3-1.3-0.9-1.6-1.7L0.8,108c-0.1-0.3-0.1-0.5-0.1-0.8V19.4c0-0.3,0.1-0.6,0.2-0.9L1,18.2c0.3-0.7,0.8-1.3,1.5-1.6L3,16.4
			c0.3-0.1,0.6-0.2,1-0.2h26.1c0.2,0,0.4,0,0.6,0.1l0.7,0.2c0.5,0.1,0.9,0.3,1.3,0.7l0.8,0.8c0.1,0.1,0.3,0.3,0.4,0.5l26.4,40.2
			V19.4C60.2,19.1,60.3,18.8,60.4,18.6z"/>
		<path class="st0" d="M179.4,83.5L179.4,83.5c0.9,0.3,1.6,1,2,1.9l0,0.1c0.2,0.4,0.2,0.8,0.2,1.2v19.9c0,0.4-0.1,0.8-0.2,1.2
			l-0.1,0.2c-0.3,0.8-0.9,1.4-1.6,1.8l-0.2,0.1c-0.5,0.2-1,0.4-1.5,0.4h-64.7c-0.4,0-0.7-0.1-1.1-0.2l0,0c-1-0.3-1.8-1.1-2.1-2.1
			l0,0c-0.1-0.3-0.2-0.7-0.2-1.1V19.6c0-0.4,0.1-0.8,0.2-1.1l0,0c0.3-0.9,1-1.6,1.9-2l0.1,0c0.4-0.2,0.8-0.2,1.2-0.2h22.1
			c0.4,0,0.8,0.1,1.2,0.2l0.2,0.1c0.8,0.3,1.4,0.9,1.8,1.6l0.1,0.2c0.2,0.5,0.4,1,0.4,1.5v63.5h39.1
			C178.7,83.3,179.1,83.4,179.4,83.5z"/>
		<path class="st1" d="M199.8,107V19.6c0-0.4,0.1-0.7,0.2-1.1l0,0c0.3-0.9,1-1.6,1.9-2l0.1,0c0.4-0.2,0.8-0.2,1.2-0.2h23.5
			c0.4,0,0.8,0.1,1.1,0.2l0.4,0.1c0.8,0.3,1.4,0.8,1.8,1.5l0.1,0.2c0.3,0.5,0.4,1,0.4,1.5v87.1c0,0.4-0.1,0.8-0.2,1.2l0,0
			c-0.4,1-1.2,1.7-2.1,2l-0.4,0.1c-0.3,0.1-0.6,0.1-0.9,0.1h-23.7c-0.4,0-0.7-0.1-1-0.2l0,0c-1-0.3-1.8-1.1-2.1-2.1l0,0
			C199.9,107.7,199.8,107.3,199.8,107z"/>
		<path class="st1" d="M356.9,107.5v0.5l-0.1,0.2c-0.4,0.9-1.2,1.7-2.1,1.9l0,0c-0.3,0.1-0.6,0.1-0.9,0.1h-23.4
			c-0.3,0-0.6,0-0.9-0.1l-0.5-0.1c-0.9-0.3-1.7-0.9-2.1-1.8l-0.1-0.2c-0.1-0.3-0.2-0.6-0.2-1L323,70.6l-7.9,36.5
			c-0.1,0.3-0.2,0.6-0.3,0.8l-0.3,0.6c-0.3,0.6-0.8,1.1-1.4,1.4l-0.2,0.1c-0.4,0.2-0.9,0.3-1.4,0.3h-21.1c-0.4,0-0.9-0.1-1.3-0.3
			l-0.2-0.1c-0.7-0.3-1.2-0.8-1.6-1.5l-0.3-0.6c-0.1-0.2-0.2-0.5-0.3-0.8l-8-36.2l-3.4,36.2c0,0.3-0.1,0.6-0.2,0.9l-0.1,0.2
			c-0.4,0.9-1.1,1.6-2.1,1.9l-0.4,0.1c-0.3,0.1-0.6,0.1-0.9,0.1h-23.4c-0.3,0-0.6,0-0.9-0.1h0c-1-0.3-1.7-1-2.1-2l-0.1-0.3v-0.4
			l8.6-87.9c0-0.4,0.2-0.8,0.3-1.2l0.2-0.3c0.4-0.7,1-1.3,1.7-1.5l0.4-0.2c0.4-0.1,0.8-0.2,1.2-0.2h28.5c0.3,0,0.6,0,0.9,0.1
			l0.8,0.2c0.7,0.2,1.3,0.6,1.7,1.2l0.5,0.7c0.2,0.3,0.4,0.7,0.5,1.1l10.5,43.6l10.8-43.8c0.1-0.3,0.2-0.7,0.4-1l0.4-0.6
			c0.4-0.7,1.1-1.2,1.8-1.4l0.9-0.2c0.3-0.1,0.6-0.1,0.9-0.1h28.4c0.4,0,0.8,0.1,1.1,0.2l0.5,0.2c0.7,0.3,1.3,0.8,1.7,1.5l0.2,0.3
			c0.2,0.4,0.3,0.8,0.4,1.2L356.9,107.5z"/>
		<path class="st0" d="M372.7,107V19.6c0-0.4,0.1-0.7,0.2-1.1l0,0c0.3-0.9,1-1.6,1.9-2l0.1,0c0.4-0.2,0.8-0.2,1.2-0.2h23.5
			c0.4,0,0.8,0.1,1.1,0.2l0.4,0.1c0.8,0.3,1.4,0.8,1.8,1.5l0.1,0.2c0.3,0.5,0.4,1,0.4,1.5v87.1c0,0.4-0.1,0.8-0.2,1.2l0,0
			c-0.4,1-1.2,1.7-2.1,2l-0.4,0.1c-0.3,0.1-0.6,0.1-0.9,0.1H376c-0.4,0-0.7-0.1-1-0.2l0,0c-1-0.3-1.8-1.1-2.1-2.1l0,0
			C372.8,107.7,372.7,107.3,372.7,107z"/>
		<path class="st0" d="M497.3,16.4L497.3,16.4c0.9,0.3,1.6,1,2,1.9l0,0.1c0.2,0.4,0.2,0.8,0.2,1.2v19.1c0,0.4-0.1,0.8-0.2,1.1
			l-0.1,0.4c-0.3,0.8-0.8,1.4-1.5,1.8l-0.2,0.1c-0.5,0.3-1,0.4-1.5,0.4h-21.9v64.5c0,0.4-0.1,0.8-0.2,1.1l0,0c-0.4,1-1.1,1.7-2.1,2
			l-0.2,0.1c-0.3,0.1-0.6,0.1-1,0.1h-23.6c-0.4,0-0.7-0.1-1-0.2l0,0c-1-0.3-1.8-1.1-2.1-2.1l0,0c-0.1-0.3-0.2-0.7-0.2-1V42.4h-22
			c-0.4,0-0.8-0.1-1.2-0.2l0,0c-1-0.4-1.7-1.2-2-2.1l-0.1-0.4c-0.1-0.3-0.1-0.6-0.1-0.9V19.5c0-0.4,0.1-0.7,0.2-1l0,0
			c0.3-1,1.1-1.8,2.1-2.1l0,0c0.3-0.1,0.7-0.2,1-0.2h74.6C496.6,16.2,497,16.3,497.3,16.4z"/>
		<g>
			<path class="st1" d="M243.6,19.2h-3.5c-1.5,0-1.9-0.4-1.7-1.8l1.7-14.2c0.2-2.3,1.1-3.2,3.2-3.2h5.7c2.6,0,3.1,1.2,2.4,3.2
				l-4.6,13.6C246.3,18.5,245.5,19.2,243.6,19.2z"/>
		</g>
	</g>
	<g>
		<path class="st0" d="M2.5,158.8l2.4-0.8c0.4,3.8,3.5,5.6,6.9,5.6c3.4,0,5.9-1.6,5.9-5.3c0-7.5-13.3-5.6-13.3-13.9
			c0-4.1,3.3-6.9,7.2-6.9c3.2,0,5.8,1.3,7.5,4.2l-1.9,1.3c-1.2-2.3-3.3-3.3-5.6-3.3c-2.4,0-4.7,1.6-4.7,4.3c0,6.5,13.3,5.1,13.3,14
			c0,4.8-3.6,7.9-8.4,7.9C7.4,166,3.3,163.6,2.5,158.8z"/>
		<path class="st0" d="M57.7,151.9c0-7.7,3.9-14.3,12.2-14.3c8.3,0,12.2,6.6,12.2,14.3c0,7.7-3.9,14.3-12.2,14.3
			C61.7,166.1,57.7,159.6,57.7,151.9z M79.7,151.9c0-6.1-2.8-11.8-9.8-11.8c-6.8,0-9.7,5.7-9.7,11.8c0,6.1,2.9,11.8,9.7,11.8
			C76.9,163.6,79.7,158,79.7,151.9z"/>
		<path class="st0" d="M122,138h2.6v25.4h11.9v2.4H122V138z"/>
		<path class="st0" d="M174.3,155.7V138h2.6v16.8c0,4.9,1.6,8.9,6.8,8.9s6.8-4,6.8-8.9V138h2.6v17.5c0,5.5-2.7,10.6-9.5,10.6
			S174.3,161,174.3,155.7z"/>
		<path class="st0" d="M240.7,140.1h-9.5V138H253v2.1h-9.5v25.6h-2.7V140.1z"/>
		<path class="st0" d="M291.6,138h2.6v27.7h-2.6V138z"/>
		<path class="st0" d="M334.1,151.9c0-7.7,3.9-14.3,12.2-14.3c8.3,0,12.2,6.6,12.2,14.3c0,7.7-3.9,14.3-12.2,14.3
			C338,166.1,334.1,159.6,334.1,151.9z M356.1,151.9c0-6.1-2.8-11.8-9.8-11.8c-6.8,0-9.7,5.7-9.7,11.8c0,6.1,2.9,11.8,9.7,11.8
			C353.2,163.6,356.1,158,356.1,151.9z"/>
		<path class="st0" d="M398.4,138h4.4l12,25.7V138h2.6v27.7H413L401.1,140v25.7h-2.7V138z"/>
		<path class="st0" d="M456.5,158.8l2.4-0.8c0.4,3.8,3.5,5.6,6.9,5.6c3.4,0,5.9-1.6,5.9-5.3c0-7.5-13.3-5.6-13.3-13.9
			c0-4.1,3.3-6.9,7.2-6.9c3.2,0,5.8,1.3,7.5,4.2l-1.9,1.3c-1.2-2.3-3.3-3.3-5.6-3.3c-2.4,0-4.7,1.6-4.7,4.3c0,6.5,13.3,5.1,13.3,14
			c0,4.8-3.6,7.9-8.4,7.9C461.4,166,457.2,163.6,456.5,158.8z"/>
	</g>
</g>
</svg>
