<?xml version="1.0" encoding="utf-8"?>
<!-- Generator: Adobe Illustrator 21.0.2, SVG Export Plug-In . SVG Version: 6.00 Build 0)  -->
<svg version="1.0" id="Layer_1" xmlns="http://www.w3.org/2000/svg" xmlns:xlink="http://www.w3.org/1999/xlink" x="0px" y="0px"
	 viewBox="0 0 498.9 166.1" style="enable-background:new 0 0 498.9 166.1;" xml:space="preserve">
<style type="text/css">
	.st0{fill:#657E36;}
</style>
<g>
	<g>
		<path d="M59.7,18.6l0.1-0.4c0.3-0.7,0.8-1.3,1.5-1.6l0.5-0.2c0.3-0.1,0.6-0.2,1-0.2h22.5c0.2,0,0.5,0,0.7,0.1l0.6,0.2
			c0.9,0.2,1.6,0.9,1.9,1.8l0.1,0.3c0.1,0.2,0.1,0.5,0.1,0.8v88.2c0,0.4-0.1,0.7-0.2,1.1l0,0c-0.3,0.8-1,1.3-1.8,1.5l-0.2,0
			c-0.2,0.1-0.4,0.1-0.7,0.1H62.2c-0.3,0-0.5,0-0.7-0.1l-0.5-0.2c-0.5-0.2-1-0.5-1.4-0.9l-0.6-0.8L29,65.2v41.9
			c0,0.3-0.1,0.6-0.2,0.9l-0.1,0.4c-0.3,0.8-0.9,1.4-1.7,1.6l-0.6,0.2c-0.3,0.1-0.5,0.1-0.8,0.1H3.3c-0.3,0-0.7-0.1-1-0.2l-0.6-0.2
			c-0.7-0.3-1.3-0.9-1.6-1.7l-0.1-0.2C0,107.8,0,107.5,0,107.3V19.5c0-0.3,0.1-0.6,0.2-0.9l0.1-0.4c0.3-0.7,0.8-1.3,1.5-1.6l0.5-0.2
			c0.3-0.1,0.6-0.2,1-0.2h26.1c0.2,0,0.4,0,0.6,0.1l0.7,0.2c0.5,0.1,0.9,0.3,1.3,0.7l0.8,0.8c0.1,0.1,0.3,0.3,0.4,0.5l26.4,40.2
			V19.5C59.5,19.2,59.6,18.9,59.7,18.6z"/>
		<path d="M178.7,83.5L178.7,83.5c0.9,0.3,1.6,1,2,1.9l0,0.1c0.2,0.4,0.2,0.8,0.2,1.2v19.9c0,0.4-0.1,0.8-0.2,1.2l-0.1,0.2
			c-0.3,0.8-0.9,1.4-1.6,1.8l-0.2,0.1c-0.5,0.2-1,0.4-1.5,0.4h-64.7c-0.4,0-0.7-0.1-1.1-0.2l0,0c-1-0.3-1.8-1.1-2.1-2.1l0,0
			c-0.1-0.3-0.2-0.7-0.2-1.1V19.6c0-0.4,0.1-0.8,0.2-1.1l0,0c0.3-0.9,1-1.6,1.9-2l0.1,0c0.4-0.2,0.8-0.2,1.2-0.2h22.1
			c0.4,0,0.8,0.1,1.2,0.2l0.2,0.1c0.8,0.3,1.4,0.9,1.8,1.6l0.1,0.2c0.2,0.5,0.4,1,0.4,1.5v63.5h39.1C178,83.3,178.4,83.4,178.7,83.5
			z"/>
		<path class="st0" d="M199.1,107V19.6c0-0.4,0.1-0.7,0.2-1.1l0,0c0.3-0.9,1-1.6,1.9-2l0.1,0c0.4-0.2,0.8-0.2,1.2-0.2h23.5
			c0.4,0,0.8,0.1,1.1,0.2l0.4,0.1c0.8,0.3,1.4,0.8,1.8,1.5l0.1,0.2c0.3,0.5,0.4,1,0.4,1.5v87.1c0,0.4-0.1,0.8-0.2,1.2v0
			c-0.4,1-1.2,1.7-2.1,2l-0.4,0.1c-0.3,0.1-0.6,0.1-0.9,0.1h-23.7c-0.4,0-0.7-0.1-1-0.2l0,0c-1-0.3-1.8-1.1-2.1-2.1l0,0
			C199.2,107.7,199.1,107.4,199.1,107z"/>
		<path class="st0" d="M356.2,107.6v0.5l-0.1,0.2c-0.4,0.9-1.2,1.7-2.1,1.9l0,0c-0.3,0.1-0.6,0.1-0.9,0.1h-23.4
			c-0.3,0-0.6,0-0.9-0.1l-0.5-0.1c-0.9-0.3-1.7-0.9-2.1-1.8L326,108c-0.1-0.3-0.2-0.6-0.2-1l-3.5-36.4l-7.9,36.5
			c-0.1,0.3-0.2,0.6-0.3,0.8l-0.3,0.6c-0.3,0.6-0.8,1.1-1.4,1.4l-0.2,0.1c-0.4,0.2-0.9,0.3-1.4,0.3h-21.1c-0.4,0-0.9-0.1-1.3-0.3
			l-0.2-0.1c-0.7-0.3-1.2-0.8-1.6-1.5l-0.3-0.6c-0.1-0.2-0.2-0.5-0.3-0.8l-8-36.2l-3.4,36.2c0,0.3-0.1,0.6-0.2,0.9l-0.1,0.2
			c-0.4,0.9-1.1,1.6-2.1,1.9l-0.4,0.1c-0.3,0.1-0.6,0.1-0.9,0.1h-23.4c-0.3,0-0.6,0-0.9-0.1v0c-1-0.3-1.7-1-2.1-2l-0.1-0.3v-0.4
			l8.6-87.9c0-0.4,0.2-0.8,0.3-1.2l0.2-0.3c0.4-0.7,1-1.3,1.7-1.5l0.4-0.2c0.4-0.1,0.8-0.2,1.2-0.2h28.5c0.3,0,0.6,0,0.9,0.1
			l0.8,0.2c0.7,0.2,1.3,0.6,1.7,1.2l0.5,0.7c0.2,0.3,0.4,0.7,0.5,1.1l10.5,43.6l10.8-43.8c0.1-0.3,0.2-0.7,0.4-1l0.4-0.6
			c0.4-0.7,1.1-1.2,1.8-1.4l0.9-0.2c0.3-0.1,0.6-0.1,0.9-0.1h28.4c0.4,0,0.8,0.1,1.1,0.2l0.5,0.2c0.7,0.3,1.3,0.8,1.7,1.5l0.2,0.3
			c0.2,0.4,0.3,0.8,0.4,1.2L356.2,107.6z"/>
		<path d="M372,107V19.6c0-0.4,0.1-0.7,0.2-1.1l0,0c0.3-0.9,1-1.6,1.9-2l0.1,0c0.4-0.2,0.8-0.2,1.2-0.2H399c0.4,0,0.8,0.1,1.1,0.2
			l0.4,0.1c0.8,0.3,1.4,0.8,1.8,1.5l0.1,0.2c0.3,0.5,0.4,1,0.4,1.5v87.1c0,0.4-0.1,0.8-0.2,1.2l0,0c-0.4,1-1.2,1.7-2.1,2l-0.4,0.1
			c-0.3,0.1-0.6,0.1-0.9,0.1h-23.7c-0.4,0-0.7-0.1-1-0.2l0,0c-1-0.3-1.8-1.1-2.1-2.1l0,0C372.1,107.7,372,107.4,372,107z"/>
		<path d="M496.6,16.4L496.6,16.4c0.9,0.3,1.6,1,2,1.9l0,0.1c0.2,0.4,0.2,0.8,0.2,1.2v19.1c0,0.4-0.1,0.8-0.2,1.1l-0.1,0.4
			c-0.3,0.8-0.8,1.4-1.5,1.8l-0.2,0.1c-0.5,0.3-1,0.4-1.5,0.4h-21.9V107c0,0.4-0.1,0.8-0.2,1.1l0,0c-0.4,1-1.1,1.7-2.1,2l-0.2,0.1
			c-0.3,0.1-0.6,0.1-1,0.1h-23.6c-0.4,0-0.7-0.1-1-0.2l0,0c-1-0.3-1.8-1.1-2.1-2.1l0,0c-0.1-0.3-0.2-0.7-0.2-1V42.5h-22
			c-0.4,0-0.8-0.1-1.2-0.2v0c-1-0.4-1.7-1.2-2-2.1l-0.1-0.4c-0.1-0.3-0.1-0.6-0.1-0.9V19.5c0-0.4,0.1-0.7,0.2-1l0,0
			c0.3-1,1.1-1.8,2.1-2.1l0,0c0.3-0.1,0.7-0.2,1-0.2h74.6C495.9,16.2,496.3,16.3,496.6,16.4z"/>
		<g>
			<path class="st0" d="M242.9,19.2h-3.5c-1.5,0-1.9-0.4-1.7-1.8l1.7-14.2c0.2-2.3,1.1-3.2,3.2-3.2h5.7c2.6,0,3.1,1.2,2.4,3.2
				l-4.6,13.6C245.6,18.5,244.8,19.2,242.9,19.2z"/>
		</g>
	</g>
	<g>
		<path class="st0" d="M1.8,158.8l2.4-0.8c0.4,3.8,3.5,5.6,6.9,5.6c3.4,0,5.9-1.6,5.9-5.3c0-7.5-13.3-5.6-13.3-13.9
			c0-4.1,3.3-6.9,7.2-6.9c3.2,0,5.8,1.3,7.5,4.2l-1.9,1.3c-1.2-2.3-3.3-3.3-5.6-3.3c-2.4,0-4.7,1.6-4.7,4.3c0,6.5,13.3,5.1,13.3,14
			c0,4.8-3.6,7.9-8.4,7.9C6.7,166.1,2.6,163.7,1.8,158.8z"/>
		<path class="st0" d="M57,151.9c0-7.7,3.9-14.3,12.2-14.3c8.3,0,12.2,6.6,12.2,14.3c0,7.7-3.9,14.3-12.2,14.3
			C61,166.1,57,159.6,57,151.9z M79,151.9c0-6.1-2.8-11.8-9.8-11.8c-6.8,0-9.7,5.7-9.7,11.8c0,6.1,2.9,11.8,9.7,11.8
			C76.2,163.7,79,158,79,151.9z"/>
		<path class="st0" d="M121.3,138h2.6v25.4h11.9v2.4h-14.5V138z"/>
		<path class="st0" d="M173.6,155.7V138h2.6v16.8c0,4.9,1.6,8.9,6.8,8.9s6.8-4,6.8-8.9V138h2.6v17.5c0,5.5-2.7,10.6-9.5,10.6
			S173.6,161,173.6,155.7z"/>
		<path class="st0" d="M240,140.1h-9.5V138h21.7v2.1h-9.5v25.6H240V140.1z"/>
		<path class="st0" d="M290.9,138h2.6v27.7h-2.6V138z"/>
		<path class="st0" d="M333.4,151.9c0-7.7,3.9-14.3,12.2-14.3c8.3,0,12.2,6.6,12.2,14.3c0,7.7-3.9,14.3-12.2,14.3
			C337.3,166.1,333.4,159.6,333.4,151.9z M355.4,151.9c0-6.1-2.8-11.8-9.8-11.8c-6.8,0-9.7,5.7-9.7,11.8c0,6.1,2.9,11.8,9.7,11.8
			C352.5,163.7,355.4,158,355.4,151.9z"/>
		<path class="st0" d="M397.7,138h4.4l12,25.7V138h2.6v27.7h-4.5L400.4,140v25.7h-2.7V138z"/>
		<path class="st0" d="M455.8,158.8l2.4-0.8c0.4,3.8,3.5,5.6,6.9,5.6c3.4,0,5.9-1.6,5.9-5.3c0-7.5-13.3-5.6-13.3-13.9
			c0-4.1,3.3-6.9,7.2-6.9c3.2,0,5.8,1.3,7.5,4.2l-1.9,1.3c-1.2-2.3-3.3-3.3-5.6-3.3c-2.4,0-4.7,1.6-4.7,4.3c0,6.5,13.3,5.1,13.3,14
			c0,4.8-3.6,7.9-8.4,7.9C460.7,166.1,456.5,163.7,455.8,158.8z"/>
	</g>
</g>
</svg>
